<?xml version="1.0" encoding="iso-8859-1"?>
<!-- Uploaded to: SVG Repo, www.svgrepo.com, Generator: SVG Repo Mixer Tools -->
<!DOCTYPE svg PUBLIC "-//W3C//DTD SVG 1.1//EN" "http://www.w3.org/Graphics/SVG/1.1/DTD/svg11.dtd">
<svg fill="#000000" version="1.1" id="Capa_1" xmlns="http://www.w3.org/2000/svg" xmlns:xlink="http://www.w3.org/1999/xlink" 
	 width="800px" height="800px" viewBox="0 0 193.086 193.085"
	 xml:space="preserve">
<g>
	<path d="M192.258,68.262c-1.631-8.204-10.107-12.748-14.827-18.872c-0.836-1.083-2.038-1.393-3.138-1.214
		c-0.292-2.728-0.886-5.37-2.204-7.345c-0.535-0.803-1.459-1.209-2.375-1.242c-7.032-10.959-21.448-15.212-34.108-16.138
		c-14.022-1.025-33.85,2.49-42.743,14.874c-0.388,0.016-0.778,0.104-1.136,0.273C86.138,27.014,67.6,20.618,56.572,19.32
		c-16.127-1.899-31.186,6.671-37.153,21.754c-0.166,0.419-0.134,0.781,0.014,1.074c-0.015,0.405,0.063,0.816,0.278,1.189
		c0.105,0.184,0.186,0.398,0.282,0.592c-5.302,5.77-12.396,9.796-15.98,16.966C-0.215,69.353,0.007,80.683,0,89.856
		c-0.019,25.973,2.094,51.969,1.22,77.941c-0.052,1.544,1.404,3.113,2.995,2.995c10.485-0.772,19.423-7.212,29.642-9.33
		c12.067-2.501,26.917-3.146,38.963-0.092c3.528,0.894,5.571,7.639,8.359,10.042c3.019,2.602,7.964,2.812,11.681,2.509
		c7.057-0.575,13.054-5.847,15.151-12.401c9.274-5.214,24.215-2.108,34.234-0.688c15.552,2.206,29.578,8.733,44.819,12.089
		c2.108,0.464,3.623-0.927,3.867-2.946c2.978-24.587,1.354-48.939,1.331-73.594C192.253,86.936,194.124,77.649,192.258,68.262z
		 M95.1,62.868c0.091-6.149,1.077-12.843,0.574-19.098c0.361-0.323,0.721-0.646,1.081-0.969c0.239-0.176,0.334-0.416,0.311-0.65
		c9.079-9.443,21.913-12.643,34.912-12.715c13.211-0.073,29.771,4.291,34.836,17.934c0.166,0.448,0.4,0.817,0.68,1.114
		c0.814,10.511,1.36,20.928,1.525,31.579c0.315,20.418-1.985,41.181,0.303,61.529c-0.675,0.181-1.226,0.634-1.586,1.274
		c-1.449-1.298-3.072-2.438-4.258-3.449c-5.332-4.547-11.07-7.13-18.006-8.323c-16.34-2.812-35.552,3.626-48.492,13.798
		c-0.069-0.12-0.133-0.247-0.201-0.368c1.027-0.149,1.948-0.893,1.849-2.135c-1.38-17.315-3.005-34.521-3.446-51.904
		C94.946,81.282,94.962,72.072,95.1,62.868z M56.574,25.357c6.746,0.527,13.274,3.222,19.007,6.669
		c5.617,3.378,8.416,8.73,13.257,12.675c0.165,0.134,0.342,0.217,0.517,0.309c-0.761,5.845-0.267,12.211-0.373,17.858
		c-0.172,9.206-0.105,18.413,0.126,27.617c0.414,16.478,1.091,33.466,4.563,49.666c-14.854-16.69-50.27-11.873-66.574,2.005
		c1.861-19.902,2.034-40.058,2.073-60.022c0.008-4.204,1.8-37.552-5.537-41.768C31.765,29.667,42.769,24.279,56.574,25.357z
		 M137.862,154.282c-8.207-0.945-23.74-2.735-30.44,4.236c-1.454-1.423-4.46-1.36-5.252,1.207
		c-2.075,6.729-13.657,12.592-19.063,4.862c-1.993-2.849-2.896-5.291-5.587-7.663c-4.118-3.633-12.936-2.949-17.995-3.225
		c-9.129-0.498-18.294,0.332-27.28,1.915c-8.735,1.539-16.377,7.072-24.955,8.755c0.543-21.871-0.453-43.936-1.189-65.781
		c-0.375-11.133-0.5-22.251,2.355-33.104c1.86-7.072,8.368-11.753,12.887-17.494c0.702,3.275,0.884,6.984,1.108,9.963
		c0.784,10.445,0.705,20.969,0.609,31.436c-0.169,18.44-2.022,37.133-0.802,55.55c0.061,0.93,0.518,1.528,1.103,1.872
		c0.086,1.372,1.457,2.606,2.919,1.665c17.134-11.034,53.304-22.626,66.079,0.517c1.125,2.038,3.323,1.796,4.584,0.548
		c0.413,0.06,0.85,0.005,1.271-0.224c14.036-7.639,27.499-13.031,43.782-12.5c10.442,0.341,17.438,7.087,24.754,13.352
		c0.745,0.881,1.949,0.924,2.913,0.465c0.86,0.046,1.738-0.51,1.854-1.709c0.056-0.582,0.08-1.165,0.101-1.749
		c0.01-0.261,0.02-0.521,0.03-0.784c0.004-0.101,0.105-0.946,0.037-0.618c0.031-0.151,0.064-0.303,0.098-0.453
		c0.127-0.13,0.241-0.274,0.336-0.437c0.105-0.187,0.187-0.388,0.24-0.596c0.273-0.271,0.474-0.652,0.512-1.171
		c1.527-20.885,2.279-42.111,2.189-63.053c-0.034-7.862-0.082-15.749-0.395-23.606c-0.015-0.374-0.023-0.783-0.034-1.182
		c4.344,4.587,9.55,8.432,11.767,14.603c3.033,8.443-0.227,20.095-0.22,28.882c0.015,22.619,1.372,44.928-0.942,67.461
		C169.277,162.312,154.429,156.187,137.862,154.282z"/>
</g>
</svg>